<?xml version="1.0" encoding="UTF-8" standalone="no"?>
<svg
   xmlns:dc="http://purl.org/dc/elements/1.1/"
   xmlns:cc="http://creativecommons.org/ns#"
   xmlns:rdf="http://www.w3.org/1999/02/22-rdf-syntax-ns#"
   xmlns:svg="http://www.w3.org/2000/svg"
   xmlns="http://www.w3.org/2000/svg"
   xmlns:sodipodi="http://sodipodi.sourceforge.net/DTD/sodipodi-0.dtd"
   xmlns:inkscape="http://www.inkscape.org/namespaces/inkscape"
   aria-hidden="true"
   focusable="false"
   data-prefix="fas"
   data-icon="thermometer-full"
   class="svg-inline--fa fa-thermometer-full fa-w-8"
   role="img"
   viewBox="0 0 476.35984 562.4853"
   version="1.1"
   id="svg4"
   sodipodi:docname="SBT.svg"
   width="476.35983"
   height="562.48529"
   inkscape:version="0.92.2 5c3e80d, 2017-08-06">
  <sodipodi:namedview
     pagecolor="#ffffff"
     bordercolor="#666666"
     borderopacity="1"
     objecttolerance="10"
     gridtolerance="10"
     guidetolerance="10"
     inkscape:pageopacity="0"
     inkscape:pageshadow="2"
     inkscape:window-width="1440"
     inkscape:window-height="856"
     id="namedview6"
     showgrid="false"
     inkscape:zoom="0.35355339"
     inkscape:cx="-207.84669"
     inkscape:cy="216.00516"
     inkscape:window-x="0"
     inkscape:window-y="-22"
     inkscape:window-maximized="0"
     inkscape:current-layer="svg4" />
  <metadata
     id="metadata10">
    <rdf:RDF>
      <cc:Work
         rdf:about="">
        <dc:format>image/svg+xml</dc:format>
        <dc:type
           rdf:resource="http://purl.org/dc/dcmitype/StillImage" />
        <dc:title />
      </cc:Work>
    </rdf:RDF>
  </metadata>
  <defs
     id="defs8" />
  <path
     style="fill:currentColor"
     inkscape:connector-curvature="0"
     d="m 223.99968,96 c 0,-53.019 -42.981,-96 -96,-96 C 74.980676,0 31.999682,42.981 31.999682,96 v 203.347 c -19.775,22.409 -31.83399974,51.789 -31.99799974,83.986 -0.359,70.303 56.78699974,128.176 127.08899774,128.664 0.299,0.002 0.61,0.003 0.909,0.003 70.698,0 128,-57.304 128,-128 0,-32.459 -12.088,-62.09 -32,-84.653 z m -96,368 -0.576,-0.002 c -43.860004,-0.304 -79.646998,-36.544 -79.422998,-80.42 0.173,-33.98 19.265996,-51.652 31.998994,-66.08 V 96 c 0,-26.467 21.533004,-48 48.000004,-48 26.467,0 48,21.533 48,48 v 221.498 c 12.63,14.312 32,32.164 32,66.502 0,44.112 -35.888,80 -80,80 z m 64,-80 c 0,35.346 -28.654,64 -64,64 -35.346004,0 -63.999998,-28.654 -63.999998,-64 0,-23.685 12.875994,-44.349 31.999994,-55.417 V 96 c 0,-17.673 14.327004,-32 32.000004,-32 17.673,0 32,14.327 32,32 v 232.583 c 19.124,11.068 32,31.732 32,55.417 z"
     id="path2"
     inkscape:export-xdpi="96"
     inkscape:export-ydpi="96" />
  <path
     id="path1035"
     title="t cos(2*t)"
     d="m 185.46994,541.61623 c 5.99389,-0.003 11.98781,-3.46335 17.98174,-9.2845 5.99391,-5.82115 11.9878,-13.91608 17.9817,-21.70958 5.99392,-7.7935 11.98783,-15.16 17.98173,-19.76858 5.9939,-4.6086 11.98783,-6.37197 17.98174,-4.74597 5.99391,1.626 11.9878,6.63267 17.98171,13.41727 5.99392,6.7846 11.98783,15.24818 17.98173,22.70175 5.9939,7.45356 11.98781,13.77339 17.98173,16.96362 5.99389,3.19021 11.9878,3.18422 17.98174,0 5.99389,-3.18423 11.98782,-9.51209 17.98171,-16.96362 5.99391,-7.45154 11.98783,-15.91387 17.98173,-22.70175 5.99391,-6.78789 11.98782,-11.78483 17.98174,-13.41727 5.9939,-1.63242 11.98781,0.14268 17.98172,4.74597 5.99392,4.60328 11.98784,11.97577 17.98172,19.76858 5.99392,7.79282 11.98782,15.88404 17.98175,21.70958 5.9939,5.82554 11.9878,9.28121 17.9817,9.2845"
     style="fill:none;fill-opacity:1;stroke:#000000;stroke-width:41.73360062;stroke-linecap:round;stroke-miterlimit:4;stroke-dasharray:none;stroke-dashoffset:0;stroke-opacity:1"
     inkscape:connector-curvature="0"
     inkscape:export-xdpi="96"
     inkscape:export-ydpi="96" />
</svg>
