<?xml version="1.0" encoding="UTF-8" standalone="no"?>
<svg
   xmlns:dc="http://purl.org/dc/elements/1.1/"
   xmlns:cc="http://creativecommons.org/ns#"
   xmlns:rdf="http://www.w3.org/1999/02/22-rdf-syntax-ns#"
   xmlns:svg="http://www.w3.org/2000/svg"
   xmlns="http://www.w3.org/2000/svg"
   xmlns:sodipodi="http://sodipodi.sourceforge.net/DTD/sodipodi-0.dtd"
   xmlns:inkscape="http://www.inkscape.org/namespaces/inkscape"
   aria-hidden="true"
   focusable="false"
   data-prefix="fas"
   data-icon="thermometer-full"
   class="svg-inline--fa fa-thermometer-full fa-w-8"
   role="img"
   viewBox="0 0 476.35984 605.23597"
   version="1.1"
   id="svg4"
   sodipodi:docname="SST.svg"
   width="476.35983"
   height="605.23596"
   inkscape:version="0.92.2 5c3e80d, 2017-08-06">
  <sodipodi:namedview
     pagecolor="#ffffff"
     bordercolor="#666666"
     borderopacity="1"
     objecttolerance="10"
     gridtolerance="10"
     guidetolerance="10"
     inkscape:pageopacity="0"
     inkscape:pageshadow="2"
     inkscape:window-width="1463"
     inkscape:window-height="874"
     id="namedview6"
     showgrid="false"
     inkscape:zoom="0.35355339"
     inkscape:cx="-773.53212"
     inkscape:cy="618.06824"
     inkscape:window-x="38"
     inkscape:window-y="27"
     inkscape:window-maximized="0"
     inkscape:current-layer="svg4" />
  <metadata
     id="metadata10">
    <rdf:RDF>
      <cc:Work
         rdf:about="">
        <dc:format>image/svg+xml</dc:format>
        <dc:type
           rdf:resource="http://purl.org/dc/dcmitype/StillImage" />
        <dc:title />
      </cc:Work>
    </rdf:RDF>
  </metadata>
  <defs
     id="defs8" />
  <path
     style="fill:currentColor"
     inkscape:connector-curvature="0"
     d="m 223.99968,189.23594 c 0,-53.019 -42.981,-95.999999 -96,-95.999999 -53.019001,0 -95.999999,42.980999 -95.999999,95.999999 v 203.347 c -19.775,22.409 -31.83399874,51.789 -31.99799874,83.986 -0.359,70.303 56.78699874,128.176 127.08899774,128.664 0.299,0.002 0.61,0.003 0.909,0.003 70.698,0 128,-57.304 128,-128 0,-32.459 -12.088,-62.09 -32,-84.653 z m -96,368 -0.576,-0.002 c -43.860001,-0.304 -79.646999,-36.544 -79.422999,-80.42 0.173,-33.98 19.266,-51.652 31.998998,-66.08 v -221.498 c 0,-26.467 21.533001,-48 48.000001,-48 26.467,0 48,21.533 48,48 v 221.498 c 12.63,14.312 32,32.164 32,66.502 0,44.112 -35.888,80 -80,80 z m 64,-80 c 0,35.346 -28.654,64 -64,64 -35.346001,0 -63.999999,-28.654 -63.999999,-64 0,-23.685 12.875998,-44.349 31.999998,-55.417 v -232.583 c 0,-17.673 14.327001,-32 32.000001,-32 17.673,0 32,14.327 32,32 v 232.583 c 19.124,11.068 32,31.732 32,55.417 z"
     id="path2"
     inkscape:export-xdpi="96"
     inkscape:export-ydpi="96" />
  <path
     id="path1035"
     title="t cos(2*t)"
     d="m 185.46994,76.852173 c 5.99389,-0.0029 11.98781,-3.463355 17.98174,-9.284499 5.99391,-5.821154 11.9878,-13.91608 17.9817,-21.709586 5.99392,-7.793496 11.98783,-15.159994 17.98173,-19.768577 5.9939,-4.608601 11.98783,-6.371972 17.98174,-4.745969 5.99391,1.626003 11.9878,6.632666 17.98171,13.417264 5.99392,6.784599 11.98783,15.248183 17.98173,22.701754 5.9939,7.453561 11.98781,13.773395 17.98173,16.963617 5.99389,3.190212 11.9878,3.184224 17.98174,0 5.99389,-3.184225 11.98782,-9.512084 17.98171,-16.963617 5.99391,-7.451543 11.98783,-15.913866 17.98173,-22.701754 5.99391,-6.787888 11.98782,-11.784827 17.98174,-13.417264 5.9939,-1.632417 11.98781,0.142676 17.98172,4.745969 5.99392,4.603275 11.98784,11.97577 17.98172,19.768577 5.99392,7.792817 11.98782,15.884046 17.98175,21.709586 5.9939,5.82554 11.9878,9.28121 17.9817,9.284499"
     style="fill:none;fill-opacity:1;stroke:#000000;stroke-width:41.73360062;stroke-linecap:round;stroke-miterlimit:4;stroke-dasharray:none;stroke-dashoffset:0;stroke-opacity:1"
     inkscape:connector-curvature="0"
     inkscape:export-xdpi="96"
     inkscape:export-ydpi="96" />
</svg>
